<?xml version="1.0" encoding="UTF-8" standalone="no"?>
<!DOCTYPE svg PUBLIC "-//W3C//DTD SVG 1.1//EN" "http://www.w3.org/Graphics/SVG/1.1/DTD/svg11.dtd">
<svg width="100%" height="100%" viewBox="0 0 1000 1000" version="1.1" xmlns="http://www.w3.org/2000/svg" xmlns:xlink="http://www.w3.org/1999/xlink" xml:space="preserve" xmlns:serif="http://www.serif.com/" style="fill-rule:evenodd;clip-rule:evenodd;stroke-linejoin:round;stroke-miterlimit:2;">
    <g transform="matrix(3.466805,0,0,3.466805,-670.472459,-2337.208145)">
        <text x="189.948px" y="831.593px" style="font-family:'HelveticaNeue-Bold', 'Helvetica Neue';font-weight:700;font-size:50px;fill:rgb(250,250,250);">Fruity</text>
        <g transform="matrix(50,0,0,50,481.647781,831.592689)">
        </g>
        <text x="380.748px" y="831.593px" style="font-family:'HelveticaNeue-Bold', 'Helvetica Neue';font-weight:700;font-size:50px;fill:rgb(251,146,68);">Link</text>
    </g>
    <g transform="matrix(0.051233,0,0,0.051233,560.025735,500)">
        <g transform="matrix(1,0,0,1,-1666.666667,-1666.666667)">
            <g transform="matrix(138.888889,0,0,138.888889,0,0)">
                <path d="M15.729,3.884C17.163,2.444 19.261,2.414 20.422,3.58C21.586,4.748 21.555,6.859 20.119,8.3L17.696,10.733C17.403,11.027 17.404,11.502 17.698,11.794C17.991,12.086 18.466,12.085 18.758,11.792L21.182,9.359C23.093,7.44 23.333,4.377 21.485,2.521C19.635,0.664 16.578,0.906 14.666,2.825L9.818,7.692C7.907,9.611 7.667,12.674 9.515,14.529C9.808,14.823 10.282,14.824 10.576,14.531C10.869,14.239 10.87,13.764 10.578,13.471C9.414,12.303 9.446,10.191 10.881,8.75L15.729,3.884Z" style="fill:rgb(250,250,250);fill-rule:nonzero;"/>
            </g>
            <g transform="matrix(138.888889,0,0,138.888889,0,0)">
                <path d="M14.485,9.471C14.193,9.177 13.718,9.176 13.424,9.469C13.131,9.761 13.13,10.236 13.422,10.529C14.586,11.697 14.555,13.809 13.119,15.25L8.272,20.116C6.837,21.556 4.739,21.586 3.578,20.42C2.414,19.252 2.446,17.141 3.881,15.7L6.305,13.267C6.597,12.973 6.596,12.498 6.303,12.206C6.009,11.914 5.534,11.915 5.242,12.208L2.818,14.641C0.907,16.56 0.667,19.623 2.515,21.479C4.366,23.337 7.422,23.094 9.334,21.175L14.182,16.308C16.093,14.389 16.333,11.326 14.485,9.471Z" style="fill:rgb(251,146,68);fill-rule:nonzero;"/>
            </g>
        </g>
    </g>
</svg>
